<svg width="576" height="512" viewBox="0 0 576 512" fill="none" xmlns="http://www.w3.org/2000/svg">
<g clip-path="url(#clip0_209_2)">
<path d="M0 25C0 11.7 10.7 1 24 1H69.5C91.5 1 111 13.8 120.1 33H531.1C557.4 33 576.6 58 569.7 83.4L528.7 235.7C520.2 267.1 491.7 289 459.2 289H170.7L176.1 317.5C178.3 328.8 188.2 337 199.7 337H488C501.3 337 512 347.7 512 361C512 374.3 501.3 385 488 385H199.7C165.1 385 135.4 360.4 129 326.5L77.4 55.5C76.7 51.7 73.4 49 69.5 49H24C10.7 49 0 38.3 0 25ZM128 465C128 458.697 129.242 452.455 131.654 446.631C134.066 440.808 137.602 435.516 142.059 431.059C146.516 426.602 151.808 423.066 157.631 420.654C163.455 418.242 169.697 417 176 417C182.303 417 188.545 418.242 194.369 420.654C200.192 423.066 205.484 426.602 209.941 431.059C214.398 435.516 217.934 440.808 220.346 446.631C222.758 452.455 224 458.697 224 465C224 471.303 222.758 477.545 220.346 483.369C217.934 489.192 214.398 494.484 209.941 498.941C205.484 503.398 200.192 506.934 194.369 509.346C188.545 511.758 182.303 513 176 513C169.697 513 163.455 511.758 157.631 509.346C151.808 506.934 146.516 503.398 142.059 498.941C137.602 494.484 134.066 489.192 131.654 483.369C129.242 477.545 128 471.303 128 465ZM464 417C476.73 417 488.939 422.057 497.941 431.059C506.943 440.061 512 452.27 512 465C512 477.73 506.943 489.939 497.941 498.941C488.939 507.943 476.73 513 464 513C451.27 513 439.061 507.943 430.059 498.941C421.057 489.939 416 477.73 416 465C416 452.27 421.057 440.061 430.059 431.059C439.061 422.057 451.27 417 464 417Z" fill="#54B1BB"/>
</g>
<defs>
<clipPath id="clip0_209_2">
<rect width="576" height="512" fill="white"/>
</clipPath>
</defs>
</svg>
